<svg width="14" height="14" viewBox="0 0 14 14" fill="none" xmlns="http://www.w3.org/2000/svg">
<g clip-path="url(#clip0_11_982)">
<path d="M11.6667 7.58331C11.6667 10.5 9.625 11.9583 7.19833 12.8041C7.07126 12.8472 6.93323 12.8451 6.8075 12.7983C4.375 11.9583 2.33333 10.5 2.33333 7.58331V3.49998C2.33333 3.34527 2.39479 3.19689 2.50419 3.0875C2.61358 2.9781 2.76196 2.91664 2.91667 2.91664C4.08333 2.91664 5.54167 2.21664 6.55667 1.32998C6.68025 1.22439 6.83746 1.16638 7 1.16638C7.16254 1.16638 7.31975 1.22439 7.44333 1.32998C8.46417 2.22248 9.91667 2.91664 11.0833 2.91664C11.238 2.91664 11.3864 2.9781 11.4958 3.0875C11.6052 3.19689 11.6667 3.34527 11.6667 3.49998V7.58331Z" fill="#FAFAFA" stroke="#FAFAFA" stroke-width="1.16667" stroke-linecap="round" stroke-linejoin="round"/>
</g>
<defs>
<clipPath id="clip0_11_982">
<rect width="14" height="14" fill="white"/>
</clipPath>
</defs>
</svg>
