<svg width="14" height="14" viewBox="0 0 14 14" fill="none" xmlns="http://www.w3.org/2000/svg">
<path d="M11.75 2.33337H2.25C1.97386 2.33337 1.75 2.55723 1.75 2.83337V4.1667C1.75 4.44285 1.97386 4.6667 2.25 4.6667H11.75C12.0261 4.6667 12.25 4.44285 12.25 4.1667V2.83337C12.25 2.55723 12.0261 2.33337 11.75 2.33337Z" stroke="#FAFAFA" stroke-width="1.16609" stroke-linecap="round" stroke-linejoin="round"/>
<path d="M11.75 5.83337H2.25C1.97386 5.83337 1.75 6.05723 1.75 6.33337V7.6667C1.75 7.94285 1.97386 8.1667 2.25 8.1667H11.75C12.0261 8.1667 12.25 7.94285 12.25 7.6667V6.33337C12.25 6.05723 12.0261 5.83337 11.75 5.83337Z" stroke="#FAFAFA" stroke-width="1.16609" stroke-linecap="round" stroke-linejoin="round"/>
<path d="M11.75 9.33337H2.25C1.97386 9.33337 1.75 9.55723 1.75 9.83337V11.1667C1.75 11.4428 1.97386 11.6667 2.25 11.6667H11.75C12.0261 11.6667 12.25 11.4428 12.25 11.1667V9.83337C12.25 9.55723 12.0261 9.33337 11.75 9.33337Z" stroke="#FAFAFA" stroke-width="1.16609" stroke-linecap="round" stroke-linejoin="round"/>
<path d="M3.5 4.08329C3.82217 4.08329 4.08333 3.82212 4.08333 3.49996C4.08333 3.17779 3.82217 2.91663 3.5 2.91663C3.17783 2.91663 2.91667 3.17779 2.91667 3.49996C2.91667 3.82212 3.17783 4.08329 3.5 4.08329Z" fill="#FAFAFA"/>
<path d="M3.5 7.58329C3.82217 7.58329 4.08333 7.32212 4.08333 6.99996C4.08333 6.67779 3.82217 6.41663 3.5 6.41663C3.17783 6.41663 2.91667 6.67779 2.91667 6.99996C2.91667 7.32212 3.17783 7.58329 3.5 7.58329Z" fill="#FAFAFA"/>
<path d="M3.5 11.0833C3.82217 11.0833 4.08333 10.8221 4.08333 10.5C4.08333 10.1778 3.82217 9.91663 3.5 9.91663C3.17783 9.91663 2.91667 10.1778 2.91667 10.5C2.91667 10.8221 3.17783 11.0833 3.5 11.0833Z" fill="#FAFAFA"/>
</svg>
