<svg width="14" height="14" viewBox="0 0 14 14" fill="none" xmlns="http://www.w3.org/2000/svg">
<path d="M10.5 4.66667C10.5 3.69421 10.1137 2.76158 9.42604 2.07394C8.7384 1.38631 7.80576 1 6.83333 1C5.86091 1 4.92827 1.38631 4.24063 2.07394C3.553 2.76158 3.16667 3.69421 3.16667 4.66667C3.16667 8.5 1.5 9.66667 1.5 9.66667H12.1667C12.1667 9.66667 10.5 8.5 10.5 4.66667Z" stroke="#FAFAFA" stroke-width="1.16609" stroke-linecap="round" stroke-linejoin="round"/>
<path d="M7.81543 12C7.70244 12.2021 7.53717 12.3698 7.33782 12.4864C7.13847 12.603 6.91192 12.6644 6.68127 12.6644C6.45062 12.6644 6.22407 12.603 6.02472 12.4864C5.82537 12.3698 5.6601 12.2021 5.54712 12" stroke="#FAFAFA" stroke-width="1.16609" stroke-linecap="round" stroke-linejoin="round"/>
</svg>
