<svg width="14" height="14" viewBox="0 0 14 14" fill="none" xmlns="http://www.w3.org/2000/svg">
<path d="M3.5 5.25C4.4665 5.25 5.25 4.4665 5.25 3.5C5.25 2.5335 4.4665 1.75 3.5 1.75C2.5335 1.75 1.75 2.5335 1.75 3.5C1.75 4.4665 2.5335 5.25 3.5 5.25Z" stroke="#FAFAFA" stroke-width="1.16609" stroke-linecap="round" stroke-linejoin="round"/>
<path d="M10.5 5.25C11.4665 5.25 12.25 4.4665 12.25 3.5C12.25 2.5335 11.4665 1.75 10.5 1.75C9.5335 1.75 8.75 2.5335 8.75 3.5C8.75 4.4665 9.5335 5.25 10.5 5.25Z" stroke="#FAFAFA" stroke-width="1.16609" stroke-linecap="round" stroke-linejoin="round"/>
<path d="M7 12.25C7.9665 12.25 8.75 11.4665 8.75 10.5C8.75 9.5335 7.9665 8.75 7 8.75C6.0335 8.75 5.25 9.5335 5.25 10.5C5.25 11.4665 6.0335 12.25 7 12.25Z" stroke="#FAFAFA" stroke-width="1.16609" stroke-linecap="round" stroke-linejoin="round"/>
<path d="M4.83333 4.66663L5.66667 9.33329" stroke="#FAFAFA" stroke-width="1.16609" stroke-linecap="round" stroke-linejoin="round"/>
<path d="M8.33333 9.33329L9.16667 4.66663" stroke="#FAFAFA" stroke-width="1.16609" stroke-linecap="round" stroke-linejoin="round"/>
</svg>
