<svg width="11" height="11" viewBox="0 0 11 11" fill="none" xmlns="http://www.w3.org/2000/svg">
<path d="M8.75 5.68748C8.75 7.87498 7.21875 8.96873 5.39875 9.60311C5.30345 9.6354 5.19992 9.63386 5.10563 9.59873C3.28125 8.96873 1.75 7.87498 1.75 5.68748V2.62498C1.75 2.50895 1.79609 2.39767 1.87814 2.31562C1.96019 2.23358 2.07147 2.18748 2.1875 2.18748C3.0625 2.18748 4.15625 1.66248 4.9175 0.997483C5.01019 0.918295 5.12809 0.874786 5.25 0.874786C5.37191 0.874786 5.48981 0.918295 5.5825 0.997483C6.34813 1.66686 7.4375 2.18748 8.3125 2.18748C8.42853 2.18748 8.53981 2.23358 8.62186 2.31562C8.70391 2.39767 8.75 2.50895 8.75 2.62498V5.68748Z" stroke="#05DF72" stroke-width="0.875" stroke-linecap="round" stroke-linejoin="round"/>
</svg>
