<svg width="14" height="14" viewBox="0 0 14 14" fill="none" xmlns="http://www.w3.org/2000/svg">
<mask id="mask0_8_671" style="mask-type:luminance" maskUnits="userSpaceOnUse" x="0" y="0" width="14" height="14">
<path d="M13.9931 0H0V13.9931H13.9931V0Z" fill="white"/>
</mask>
<g mask="url(#mask0_8_671)">
<path d="M6.99657 8.7457C7.96259 8.7457 8.7457 7.96259 8.7457 6.99657C8.7457 6.03055 7.96259 5.24744 6.99657 5.24744C6.03055 5.24744 5.24744 6.03055 5.24744 6.99657C5.24744 7.96259 6.03055 8.7457 6.99657 8.7457Z" stroke="#FAFAFA" stroke-width="1.16609" stroke-linecap="round" stroke-linejoin="round"/>
<path d="M5.6387 2.41149C5.67083 2.07352 5.8278 1.75967 6.07896 1.53126C6.33012 1.30284 6.65741 1.17627 6.9969 1.17627C7.3364 1.17627 7.66369 1.30284 7.91485 1.53126C8.16601 1.75967 8.32298 2.07352 8.35511 2.41149C8.37441 2.62981 8.44604 2.84027 8.56391 3.02505C8.68179 3.20983 8.84245 3.36349 9.03229 3.47302C9.22213 3.58256 9.43557 3.64475 9.65454 3.65432C9.8735 3.66389 10.0915 3.62057 10.2902 3.52802C10.5987 3.38796 10.9482 3.36769 11.2709 3.47116C11.5935 3.57464 11.866 3.79444 12.0355 4.0878C12.205 4.38116 12.2593 4.72709 12.1878 5.05826C12.1163 5.38943 11.9241 5.68214 11.6487 5.87944C11.4693 6.00528 11.3229 6.17248 11.2218 6.36687C11.1208 6.56127 11.068 6.77715 11.068 6.99626C11.068 7.21536 11.1208 7.43124 11.2218 7.62564C11.3229 7.82003 11.4693 7.98723 11.6487 8.11308C11.9241 8.31037 12.1163 8.60309 12.1878 8.93425C12.2593 9.26542 12.205 9.61135 12.0355 9.90471C11.866 10.1981 11.5935 10.4179 11.2709 10.5213C10.9482 10.6248 10.5987 10.6045 10.2902 10.4645C10.0915 10.3719 9.8735 10.3286 9.65454 10.3382C9.43557 10.3477 9.22213 10.4099 9.03229 10.5195C8.84245 10.629 8.68179 10.7827 8.56391 10.9674C8.44604 11.1522 8.37441 11.3627 8.35511 11.581C8.32298 11.919 8.16601 12.2328 7.91485 12.4612C7.66369 12.6897 7.3364 12.8162 6.9969 12.8162C6.65741 12.8162 6.33012 12.6897 6.07896 12.4612C5.8278 12.2328 5.67083 11.919 5.6387 11.581C5.61943 11.3626 5.54781 11.1521 5.4299 10.9672C5.31199 10.7824 5.15126 10.6287 4.96134 10.5191C4.77142 10.4096 4.5579 10.3474 4.33885 10.3379C4.11981 10.3284 3.9017 10.3718 3.703 10.4645C3.3945 10.6045 3.04493 10.6248 2.72232 10.5213C2.3997 10.4179 2.12713 10.1981 1.95765 9.90471C1.78816 9.61135 1.73389 9.26542 1.8054 8.93425C1.87691 8.60309 2.06908 8.31037 2.34451 8.11308C2.52386 7.98723 2.67027 7.82003 2.77134 7.62564C2.87242 7.43124 2.92519 7.21536 2.92519 6.99626C2.92519 6.77715 2.87242 6.56127 2.77134 6.36687C2.67027 6.17248 2.52386 6.00528 2.34451 5.87944C2.06946 5.68204 1.87763 5.38944 1.8063 5.0585C1.73496 4.72756 1.78922 4.38191 1.95852 4.08874C2.12782 3.79557 2.40008 3.57582 2.72237 3.47219C3.04466 3.36856 3.39397 3.38846 3.70241 3.52802C3.90109 3.62057 4.11914 3.66389 4.33811 3.65432C4.55707 3.64475 4.77051 3.58256 4.96035 3.47302C5.1502 3.36349 5.31085 3.20983 5.42873 3.02505C5.54661 2.84027 5.61823 2.62981 5.63754 2.41149" stroke="#FAFAFA" stroke-width="1.16609" stroke-linecap="round" stroke-linejoin="round"/>
</g>
</svg>
