<svg width="11" height="11" viewBox="0 0 11 11" fill="none" xmlns="http://www.w3.org/2000/svg">
<path d="M1.75003 6.12501C1.66724 6.12529 1.58607 6.10208 1.51594 6.05806C1.44582 6.01405 1.38963 5.95104 1.35389 5.87636C1.31816 5.80168 1.30434 5.71839 1.31406 5.63617C1.32377 5.55395 1.35662 5.47618 1.40878 5.41189L5.74003 0.949385C5.77252 0.911883 5.81679 0.886541 5.86558 0.877518C5.91437 0.868496 5.96478 0.876328 6.00853 0.899731C6.05229 0.923133 6.08678 0.960715 6.10636 1.00631C6.12594 1.0519 6.12944 1.10279 6.11628 1.15064L5.27628 3.78439C5.25151 3.85068 5.24319 3.92199 5.25204 3.9922C5.26088 4.06241 5.28663 4.12943 5.32707 4.18751C5.3675 4.24559 5.42143 4.29299 5.48421 4.32564C5.54699 4.3583 5.61676 4.37524 5.68753 4.37501H8.75003C8.83282 4.37473 8.91399 4.39794 8.98411 4.44196C9.05423 4.48597 9.11043 4.54898 9.14616 4.62366C9.1819 4.69834 9.19571 4.78163 9.186 4.86385C9.17628 4.94607 9.14344 5.02384 9.09128 5.08814L4.76003 9.55064C4.72754 9.58814 4.68326 9.61348 4.63447 9.6225C4.58568 9.63152 4.53527 9.62369 4.49152 9.60029C4.44777 9.57689 4.41327 9.53931 4.39369 9.49371C4.37411 9.44812 4.37062 9.39723 4.38378 9.34939L5.22378 6.71564C5.24855 6.64934 5.25686 6.57803 5.24802 6.50782C5.23917 6.43761 5.21343 6.37059 5.17299 6.31251C5.13255 6.25444 5.07863 6.20704 5.01584 6.17438C4.95306 6.14172 4.88329 6.12478 4.81253 6.12501H1.75003Z" stroke="#51A2FF" stroke-width="0.875" stroke-linecap="round" stroke-linejoin="round"/>
</svg>
