<svg width="24" height="24" viewBox="0 0 24 24" fill="none" xmlns="http://www.w3.org/2000/svg">
<g opacity="0.5">
<path d="M8 3H5C3.89543 3 3 3.89543 3 5V19C3 20.1046 3.89543 21 5 21H8C9.10457 21 10 20.1046 10 19V5C10 3.89543 9.10457 3 8 3Z" fill="#525252"/>
<path d="M19 3H14C12.8954 3 12 3.89543 12 5V6C12 7.10457 12.8954 8 14 8H19C20.1046 8 21 7.10457 21 6V5C21 3.89543 20.1046 3 19 3Z" fill="#525252"/>
<path d="M19 9.5H14C12.8954 9.5 12 10.3954 12 11.5V12.5C12 13.6046 12.8954 14.5 14 14.5H19C20.1046 14.5 21 13.6046 21 12.5V11.5C21 10.3954 20.1046 9.5 19 9.5Z" fill="#525252"/>
<path d="M19 16H14C12.8954 16 12 16.8954 12 18V19C12 20.1046 12.8954 21 14 21H19C20.1046 21 21 20.1046 21 19V18C21 16.8954 20.1046 16 19 16Z" fill="#525252"/>
</g>
</svg>
